<svg
  width="current"
  height="current"
  viewBox="0 0 17 16"
  fill="none"
  xmlns="http://www.w3.org/2000/svg"
>
  <g id="BiBookAdd">
    <path
      id="Vector"
      fill="currentColor"
      d="M2.5 5.33325V12.6666C2.5 14.1339 3.696 14.6666 4.5 14.6666H14.5V13.3333H4.508C4.2 13.3253 3.83333 13.2039 3.83333 12.6666C3.83333 12.5993 3.83933 12.5393 3.84933 12.4846C3.924 12.1006 4.23867 12.0066 4.508 11.9999H14.5V2.66659C14.5 1.93125 13.902 1.33325 13.1667 1.33325H4.5C3.696 1.33325 2.5 1.86592 2.5 3.33325V5.33325ZM4.5 2.66659H13.1667V10.6666H3.83333V3.33325C3.83333 2.79592 4.2 2.67459 4.5 2.66659Z"
    />
    <path
      id="Vector_2"
      fill="currentColor"
      d="M7.83325 9.33333H9.16659V7.33333H11.1666V6H9.16659V4H7.83325V6H5.83325V7.33333H7.83325V9.33333Z"
    />
  </g>
</svg>
