<svg
  width="21"
  height="20"
  viewBox="0 0 21 20"
  fill="none"
  xmlns="http://www.w3.org/2000/svg"
>
  <path
    fill="currentColor"
    d="M9.84917 2.81253L7.16667 6.16586L4.48417 2.81253C4.37582 2.67859 4.2287 2.58145 4.06298 2.53441C3.89726 2.48738 3.72105 2.49275 3.5585 2.54979C3.39595 2.60683 3.25502 2.71276 3.15503 2.85304C3.05504 2.99332 3.00089 3.16109 3 3.33336V15.8334C3 16.7525 3.7475 17.5 4.66667 17.5H16.3333C17.2525 17.5 18 16.7525 18 15.8334V3.33336C17.9991 3.16109 17.945 2.99332 17.845 2.85304C17.745 2.71276 17.6041 2.60683 17.4415 2.54979C17.279 2.49275 17.1027 2.48738 16.937 2.53441C16.7713 2.58145 16.6242 2.67859 16.5158 2.81253L13.8333 6.16586L11.1508 2.81253C10.8333 2.41753 10.1667 2.41753 9.84917 2.81253ZM4.66667 15.8334V14.1667H16.3342V15.8334H4.66667ZM13.1825 8.02086C13.5 8.41669 14.1675 8.41669 14.485 8.02086L16.3333 5.70919L16.3342 12.5H4.66667V5.70919L6.51583 8.02086C6.83333 8.41669 7.50083 8.41669 7.81833 8.02086L10.5 4.66753L13.1825 8.02086Z"
  />
</svg>