<svg
  width="current"
  height="current"
  viewBox="0 0 20 20"
  fill="none"
  xmlns="http://www.w3.org/2000/svg"
>
  <path
    fill="currentColor"
    d="M14.1667 5.00008C15.0871 5.00008 15.8333 4.25389 15.8333 3.33341C15.8333 2.41294 15.0871 1.66675 14.1667 1.66675C13.2462 1.66675 12.5 2.41294 12.5 3.33341C12.5 4.25389 13.2462 5.00008 14.1667 5.00008Z"
  />
  <path
    fill="currentColor"
    d="M13.1475 9.14081C13.3388 9.42587 13.6132 9.64516 13.9334 9.7689C14.2537 9.89264 14.6042 9.91483 14.9375 9.83247L17.7008 9.14164L17.2983 7.52497L14.535 8.21581L13.3858 6.49331C13.1403 6.12545 12.7593 5.86962 12.3258 5.78164L9.12083 5.13997C8.76228 5.06802 8.39002 5.1161 8.06153 5.27681C7.73303 5.43752 7.46659 5.70191 7.30333 6.02914L5.92167 8.79247L7.4125 9.53831L8.79417 6.77414L10.4333 7.10247L6.195 14.1666H2.5V15.8333H6.195C6.77667 15.8333 7.32417 15.5233 7.62417 15.0241L9.2225 12.3608L13.53 13.2225L15.0433 17.7633L16.6233 17.2358L15.1108 12.6958C15.0175 12.4171 14.8523 12.1679 14.632 11.9733C14.4117 11.7787 14.144 11.6456 13.8558 11.5875L11.3233 11.0816L12.8 8.61997L13.1475 9.14081Z"
  />
</svg>
