<svg width="21" height="21" viewBox="0 0 21 21" fill="none" xmlns="http://www.w3.org/2000/svg">
<g id="MdCameraEnhance">
<path id="Vector" d="M8.20699 3.38898L6.68199 5.05564H4.04032C3.12366 5.05564 2.37366 5.80564 2.37366 6.72231V16.7223C2.37366 17.639 3.12366 18.389 4.04032 18.389H17.3737C18.2903 18.389 19.0403 17.639 19.0403 16.7223V6.72231C19.0403 5.80564 18.2903 5.05564 17.3737 5.05564H14.732L13.207 3.38898H8.20699ZM10.707 15.889C8.40699 15.889 6.54032 14.0223 6.54032 11.7223C6.54032 9.42231 8.40699 7.55564 10.707 7.55564C13.007 7.55564 14.8737 9.42231 14.8737 11.7223C14.8737 14.0223 13.007 15.889 10.707 15.889Z" fill="white"/>
<path id="Vector_2" d="M10.707 15.0556L11.7487 12.764L14.0403 11.7223L11.7487 10.6806L10.707 8.38898L9.66532 10.6806L7.37366 11.7223L9.66532 12.764L10.707 15.0556Z" fill="white"/>
</g>
</svg>
