<svg
  width="current"
  height="current"
  viewBox="0 0 18 18"
  fill="none"
  xmlns="http://www.w3.org/2000/svg"
>
  <path
    id="Vector 3 (Stroke)"
    fill="currentColor"
    fill-rule="evenodd"
    clip-rule="evenodd"
    d="M17.6067 4.93371L8.37213 14.1682L3.11377 8.90989L4.17443 7.84923L8.37213 12.0469L16.546 3.87305L17.6067 4.93371Z"
  />
  <path
    id="Subtract"
    fill="currentColor"
    fill-rule="evenodd"
    clip-rule="evenodd"
    d="M0.5 2.36699C0.5 1.42811 1.26112 0.666992 2.2 0.666992H12.0947C13.0336 0.666992 13.7947 1.42811 13.7947 2.36699V5.20973L8.37203 10.6324L4.17434 6.43468L1.69946 8.90955L8.37203 15.5821L13.7947 10.1595V15.6335C13.7947 16.5724 13.0336 17.3335 12.0947 17.3335H2.2C1.26112 17.3335 0.5 16.5724 0.5 15.6335V2.36699ZM3.1138 8.90943L8.37213 14.1678L13.7947 8.74521V8.74526L8.37203 14.1679L3.11368 8.90955L3.1138 8.90943Z"
  />
</svg>
