<svg width="17" height="16" viewBox="0 0 17 16" fill="none" xmlns="http://www.w3.org/2000/svg">
<g id="HiOutlinePencil">
<path id="Vector (Stroke)" fill-rule="evenodd" clip-rule="evenodd" d="M12.8333 2.66634C12.568 2.66634 12.3136 2.77172 12.126 2.9593L11.5974 3.48789L13.0119 4.90242L13.5405 4.37382C13.7281 4.18625 13.8335 3.93183 13.8335 3.66656C13.8335 3.40129 13.7281 3.14688 13.5405 2.9593C13.3529 2.77172 13.0985 2.66634 12.8333 2.66634ZM14.4833 5.31663C14.9209 4.87901 15.1668 4.28546 15.1668 3.66656C15.1668 3.04766 14.9209 2.45412 14.4833 2.01649C14.0457 1.57886 13.4521 1.33301 12.8333 1.33301C12.2144 1.33301 11.6208 1.57886 11.1832 2.01649L10.1835 3.01614C10.1834 3.01626 10.1836 3.01603 10.1835 3.01614C10.1834 3.01626 10.183 3.01672 10.1828 3.01684L2.02851 11.1712C1.90349 11.2962 1.83325 11.4657 1.83325 11.6426V14.0239C1.83325 14.3921 2.13173 14.6906 2.49992 14.6906H4.83325C5.01006 14.6906 5.17963 14.6203 5.30466 14.4953L14.4833 5.31663ZM12.0691 5.84523L10.6546 4.4307L3.16659 11.9187V13.3572H4.55711L12.0691 5.84523Z" fill="white"/>
</g>
</svg>
