<svg
  width="current"
  height="current"
  viewBox="0 0 20 20"
  fill="none"
  xmlns="http://www.w3.org/2000/svg"
>
  <g id="HiOutlinePencil">
  <path
    id="Vector (Stroke)"
    fill="currentColor"
    fill-rule="evenodd"
    clip-rule="evenodd"
    d="M15.4167 3.33306C15.0852 3.33306 14.7671 3.46478 14.5327 3.69926L13.8719 4.36L15.6401 6.12815L16.3008 5.46741C16.5353 5.23294 16.667 4.91493 16.667 4.58333C16.667 4.25174 16.5353 3.93373 16.3008 3.69926C16.0664 3.46478 15.7483 3.33306 15.4167 3.33306ZM17.4793 6.64592C18.0264 6.09889 18.3337 5.35695 18.3337 4.58333C18.3337 3.80971 18.0264 3.06778 17.4793 2.52074C16.9323 1.97371 16.1904 1.66639 15.4167 1.66639C14.6431 1.66639 13.9012 1.97371 13.3542 2.52074L12.1046 3.77031C12.1044 3.77045 12.1047 3.77017 12.1046 3.77031C12.1044 3.77045 12.1039 3.77103 12.1037 3.77118L1.91083 13.9641C1.75455 14.1204 1.66675 14.3323 1.66675 14.5533V17.53C1.66675 17.9902 2.03984 18.3633 2.50008 18.3633H5.41675C5.63776 18.3633 5.84972 18.2755 6.006 18.1193L17.4793 6.64592ZM14.4616 7.30667L12.6934 5.53851L3.33341 14.8985V16.6967H5.07157L14.4616 7.30667Z"
  />
  </g>
</svg>
