<svg width="20" height="20" viewBox="0 0 20 20" fill="none" xmlns="http://www.w3.org/2000/svg">
<g id="HiOutlinePencil">
<path id="Vector (Stroke)" fill-rule="evenodd" clip-rule="evenodd" d="M15.4167 3.33317C15.0851 3.33317 14.7671 3.4649 14.5326 3.69937L13.8719 4.36011L15.64 6.12827L16.3008 5.46752C16.5352 5.23305 16.667 4.91504 16.667 4.58345C16.667 4.25185 16.5352 3.93384 16.3008 3.69937C16.0663 3.4649 15.7483 3.33317 15.4167 3.33317ZM17.4793 6.64603C18.0263 6.099 18.3336 5.35707 18.3336 4.58345C18.3336 3.80982 18.0263 3.06789 17.4793 2.52086C16.9322 1.97382 16.1903 1.6665 15.4167 1.6665C14.6431 1.6665 13.9011 1.97382 13.3541 2.52086L12.1045 3.77042C12.1044 3.77057 12.1047 3.77028 12.1045 3.77042C12.1044 3.77057 12.1038 3.77115 12.1037 3.77129L1.91076 13.9642C1.75448 14.1205 1.66669 14.3324 1.66669 14.5534V17.5301C1.66669 17.9903 2.03978 18.3634 2.50002 18.3634H5.41669C5.6377 18.3634 5.84966 18.2756 6.00594 18.1194L17.4793 6.64603ZM14.4615 7.30678L12.6934 5.53862L3.33335 14.8986V16.6968H5.07151L14.4615 7.30678Z" fill="#3660F9"/>
</g>
</svg>
