<svg xmlns="http://www.w3.org/2000/svg" width="24" height="25" viewBox="0 0 24 25" fill="none">
    <path fill-rule="evenodd" clip-rule="evenodd"
          d="M4 12.25C4 11.6977 4.44772 11.25 5 11.25H19C19.5523 11.25 20 11.6977 20 12.25C20 12.8023 19.5523 13.25 19 13.25H5C4.44772 13.25 4 12.8023 4 12.25Z"
          fill="currentColor"/>
    <path fill-rule="evenodd" clip-rule="evenodd"
          d="M11.2929 4.54289C11.6834 4.15237 12.3166 4.15237 12.7071 4.54289L19.7071 11.5429C20.0976 11.9334 20.0976 12.5666 19.7071 12.9571L12.7071 19.9571C12.3166 20.3476 11.6834 20.3476 11.2929 19.9571C10.9024 19.5666 10.9024 18.9334 11.2929 18.5429L17.5858 12.25L11.2929 5.95711C10.9024 5.56658 10.9024 4.93342 11.2929 4.54289Z"
          fill="currentColor"/>
</svg>
