<svg xmlns="http://www.w3.org/2000/svg" width="20" height="20" viewBox="0 0 20 20" fill="none">
    <path fill-rule="evenodd" clip-rule="evenodd"
          d="M1.66663 5.00008C1.66663 4.53984 2.03972 4.16675 2.49996 4.16675H17.5C17.9602 4.16675 18.3333 4.53984 18.3333 5.00008C18.3333 5.46032 17.9602 5.83342 17.5 5.83342H2.49996C2.03972 5.83342 1.66663 5.46032 1.66663 5.00008Z"
          fill="currentColor"/>
    <path fill-rule="evenodd" clip-rule="evenodd"
          d="M8.33337 2.49992C8.11236 2.49992 7.9004 2.58772 7.74412 2.744C7.58784 2.90028 7.50004 3.11224 7.50004 3.33325V4.99992C7.50004 5.46016 7.12694 5.83325 6.66671 5.83325C6.20647 5.83325 5.83337 5.46016 5.83337 4.99992V3.33325C5.83337 2.67021 6.09677 2.03433 6.56561 1.56548C7.03445 1.09664 7.67033 0.833252 8.33337 0.833252H11.6667C12.3297 0.833252 12.9656 1.09664 13.4345 1.56548C13.9033 2.03433 14.1667 2.67021 14.1667 3.33325V4.99992C14.1667 5.46016 13.7936 5.83325 13.3334 5.83325C12.8731 5.83325 12.5 5.46016 12.5 4.99992V3.33325C12.5 3.11224 12.4122 2.90028 12.256 2.744C12.0997 2.58772 11.8877 2.49992 11.6667 2.49992H8.33337ZM4.16671 4.16658C4.62694 4.16658 5.00004 4.53968 5.00004 4.99992V16.6666C5.00004 16.8876 5.08784 17.0996 5.24412 17.2558C5.4004 17.4121 5.61236 17.4999 5.83337 17.4999H14.1667C14.3877 17.4999 14.5997 17.4121 14.756 17.2558C14.9122 17.0996 15 16.8876 15 16.6666V4.99992C15 4.53968 15.3731 4.16658 15.8334 4.16658C16.2936 4.16658 16.6667 4.53968 16.6667 4.99992V16.6666C16.6667 17.3296 16.4033 17.9655 15.9345 18.4344C15.4656 18.9032 14.8297 19.1666 14.1667 19.1666H5.83337C5.17033 19.1666 4.53445 18.9032 4.06561 18.4344C3.59677 17.9655 3.33337 17.3296 3.33337 16.6666V4.99992C3.33337 4.53968 3.70647 4.16658 4.16671 4.16658Z"
          fill="currentColor"/>
    <path fill-rule="evenodd" clip-rule="evenodd"
          d="M8.33333 8.33325C8.79357 8.33325 9.16667 8.70635 9.16667 9.16659V14.1666C9.16667 14.6268 8.79357 14.9999 8.33333 14.9999C7.8731 14.9999 7.5 14.6268 7.5 14.1666V9.16659C7.5 8.70635 7.8731 8.33325 8.33333 8.33325Z"
          fill="currentColor"/>
    <path fill-rule="evenodd" clip-rule="evenodd"
          d="M11.6667 8.33325C12.1269 8.33325 12.5 8.70635 12.5 9.16659V14.1666C12.5 14.6268 12.1269 14.9999 11.6667 14.9999C11.2065 14.9999 10.8334 14.6268 10.8334 14.1666V9.16659C10.8334 8.70635 11.2065 8.33325 11.6667 8.33325Z"
          fill="currentColor"/>
</svg>