<svg
  width="20"
  height="20"
  viewBox="0 0 20 20"
  fill="none"
  xmlns="http://www.w3.org/2000/svg"
>
  <g id="HiOutlineFlag">
    <path
      id="Vector (Stroke)"
      fill="currentColor"
      fill-rule="evenodd"
      clip-rule="evenodd"
      d="M4.16675 3.33333C3.94573 3.33333 3.73377 3.42113 3.57749 3.57741C3.42121 3.73369 3.33341 3.94565 3.33341 4.16667V11.8096C3.59858 11.7159 3.88013 11.6667 4.16675 11.6667H9.58342C9.80443 11.6667 10.0164 11.7545 10.1727 11.9107L10.7619 12.5H16.1517L14.2547 8.70601C14.1374 8.47141 14.1374 8.19526 14.2547 7.96066L16.1517 4.16667H10.8334V7.5C10.8334 7.96024 10.4603 8.33333 10.0001 8.33333C9.53984 8.33333 9.16675 7.96024 9.16675 7.5V3.33333H4.16675ZM10.7619 2.5H17.5001C17.7889 2.5 18.0571 2.64954 18.209 2.89523C18.3608 3.14091 18.3746 3.44769 18.2454 3.70601L15.9318 8.33333L18.2454 12.9607C18.3746 13.219 18.3608 13.5258 18.209 13.7714C18.0571 14.0171 17.7889 14.1667 17.5001 14.1667H10.4167C10.1957 14.1667 9.98377 14.0789 9.82749 13.9226L9.23824 13.3333H4.16675C3.94573 13.3333 3.73377 13.4211 3.57749 13.5774C3.42121 13.7337 3.33341 13.9457 3.33341 14.1667V17.5C3.33341 17.9602 2.96032 18.3333 2.50008 18.3333C2.03984 18.3333 1.66675 17.9602 1.66675 17.5V4.16667C1.66675 3.50363 1.93014 2.86774 2.39898 2.3989C2.86782 1.93006 3.50371 1.66667 4.16675 1.66667H9.58342C9.80443 1.66667 10.0164 1.75447 10.1727 1.91075L10.5889 2.32697C10.5892 2.32726 10.5895 2.32756 10.5898 2.32785L10.7619 2.5Z"
    />
  </g>
</svg>
