<svg
  width="current"
  height="current"
  viewBox="0 0 20 20"
  fill="none"
  xmlns="http://www.w3.org/2000/svg"
>
  <path
    fill="currentColor"
    fill-rule="evenodd"
    clip-rule="evenodd"
    d="M9.16675 4.16696L5.24434 8.08937C5.08806 8.24565 4.8761 8.33345 4.65508 8.33345H3.33341V11.6668H4.65508C4.8761 11.6668 5.08806 11.7546 5.24434 11.9109L9.16675 15.8333V4.16696ZM7.98833 2.98836C9.03819 1.9385 10.8334 2.68171 10.8334 4.16678V15.8334C10.8334 17.3185 9.03819 18.0617 7.98833 17.0119L4.3099 13.3334H3.33341C2.89139 13.3334 2.46746 13.1579 2.1549 12.8453C1.84234 12.5327 1.66675 12.1088 1.66675 11.6668V8.33345C1.66675 7.89142 1.84234 7.4675 2.1549 7.15494C2.46746 6.84238 2.89139 6.66678 3.33341 6.66678H4.3099L7.98833 2.98836ZM14.7142 4.10753C15.0396 3.78209 15.5672 3.78209 15.8927 4.10752C16.6665 4.88134 17.2803 5.80001 17.6991 6.81106C18.1179 7.82212 18.3335 8.90576 18.3335 10.0001C18.3335 11.0945 18.1179 12.1781 17.6991 13.1892C17.2803 14.2002 16.6665 15.1189 15.8927 15.8927C15.5672 16.2181 15.0396 16.2181 14.7142 15.8927C14.3887 15.5673 14.3887 15.0396 14.7142 14.7142C15.3332 14.0951 15.8243 13.3602 16.1593 12.5514C16.4944 11.7425 16.6668 10.8756 16.6668 10.0001C16.6668 9.12463 16.4944 8.25771 16.1593 7.44887C15.8243 6.64003 15.3332 5.9051 14.7142 5.28604C14.3887 4.96061 14.3887 4.43297 14.7142 4.10753ZM12.3574 6.46427C12.6828 6.13879 13.2104 6.13872 13.5359 6.46411C14.0004 6.92842 14.3688 7.47968 14.6201 8.08639C14.8715 8.69311 15.0009 9.34339 15.0009 10.0001C15.0009 10.6568 14.8715 11.3071 14.6201 11.9138C14.3688 12.5205 14.0004 13.0718 13.5359 13.5361C13.2104 13.8615 12.6828 13.8614 12.3574 13.536C12.032 13.2105 12.0321 12.6828 12.3576 12.3574C12.6672 12.0479 12.9128 11.6804 13.0804 11.2759C13.2479 10.8715 13.3342 10.4379 13.3342 10.0001C13.3342 9.5623 13.2479 9.12878 13.0804 8.7243C12.9128 8.31982 12.6672 7.95232 12.3576 7.64278C12.0321 7.31739 12.032 6.78975 12.3574 6.46427Z"
  />
</svg>
