<svg
  width="current"
  height="current"
  viewBox="0 0 13 13"
  fill="none"
  xmlns="http://www.w3.org/2000/svg"
>
  <path
    id="Vector"
    fill="currentColor"
    d="M9.71484 1L7.21484 3.5V9L9.71484 6.75V1ZM0.714844 3.5V10.825C0.714844 10.95 0.839844 11.075 0.964844 11.075C1.01484 11.075 1.03984 11.05 1.08984 11.05C1.76484 10.725 2.73984 10.5 3.46484 10.5C4.43984 10.5 5.48984 10.7 6.21484 11.25V3.5C5.48984 2.95 4.43984 2.75 3.46484 2.75C2.48984 2.75 1.43984 2.95 0.714844 3.5ZM11.7148 10.25V3.5C11.4148 3.275 11.0898 3.125 10.7148 3V9.75C10.1648 9.575 9.56484 9.5 8.96484 9.5C8.11484 9.5 6.88984 9.825 6.21484 10.25V11.25C6.88984 10.825 8.11484 10.5 8.96484 10.5C9.78984 10.5 10.6398 10.65 11.3398 11.025C11.3898 11.05 11.4148 11.05 11.4648 11.05C11.5898 11.05 11.7148 10.925 11.7148 10.8V10.25Z"
  />
</svg>
