<svg xmlns="http://www.w3.org/2000/svg" width="21" height="21" viewBox="0 0 21 21" fill="none">
    <path d="M10.5 13.1666C11.9728 13.1666 13.1667 11.9727 13.1667 10.5C13.1667 9.02722 11.9728 7.83331 10.5 7.83331C9.02728 7.83331 7.83337 9.02722 7.83337 10.5C7.83337 11.9727 9.02728 13.1666 10.5 13.1666Z"
          fill="currentColor"/>
    <path d="M7.99996 2.16669L6.47496 3.83335H3.83329C2.91663 3.83335 2.16663 4.58335 2.16663 5.50002V15.5C2.16663 16.4167 2.91663 17.1667 3.83329 17.1667H17.1666C18.0833 17.1667 18.8333 16.4167 18.8333 15.5V5.50002C18.8333 4.58335 18.0833 3.83335 17.1666 3.83335H14.525L13 2.16669H7.99996ZM10.5 14.6667C8.19996 14.6667 6.33329 12.8 6.33329 10.5C6.33329 8.20002 8.19996 6.33335 10.5 6.33335C12.8 6.33335 14.6666 8.20002 14.6666 10.5C14.6666 12.8 12.8 14.6667 10.5 14.6667Z"
          fill="currentColor"/>
</svg>