<svg
  width="18"
  height="18"
  viewBox="0 0 18 18"
  fill="none"
  xmlns="http://www.w3.org/2000/svg"
>
  <g id="MdDirectionsWalk">
    <path
      id="Vector"
      fill="currentColor"
      d="M9.91113 3.94954C10.6903 3.94954 11.3278 3.31204 11.3278 2.53288C11.3278 1.75371 10.6903 1.11621 9.91113 1.11621C9.13197 1.11621 8.49447 1.75371 8.49447 2.53288C8.49447 3.31204 9.13197 3.94954 9.91113 3.94954ZM7.2903 6.35788L5.30697 16.3454H6.79447L8.06947 10.6787L9.55697 12.0954V16.3454H10.9736V11.0329L9.48613 9.61621L9.91113 7.49121C10.832 8.55371 12.2486 9.26204 13.807 9.26204V7.84538C12.4611 7.84538 11.3278 7.13704 10.7611 6.14538L10.0528 5.01204C9.76947 4.58704 9.34447 4.30371 8.84863 4.30371C8.63613 4.30371 8.49447 4.37454 8.28197 4.37454L4.59863 5.93288V9.26204H6.0153V6.85371L7.2903 6.35788Z"
    />
  </g>
</svg>
