<svg width="13" height="13" viewBox="0 0 13 13" fill="none" xmlns="http://www.w3.org/2000/svg">
<g id="MdGroup">
<path id="Vector" d="M8.34863 5.55371C9.17863 5.55371 9.84363 4.88371 9.84363 4.05371C9.84363 3.22371 9.17863 2.55371 8.34863 2.55371C7.51863 2.55371 6.84863 3.22371 6.84863 4.05371C6.84863 4.88371 7.51863 5.55371 8.34863 5.55371ZM4.34863 5.55371C5.17863 5.55371 5.84363 4.88371 5.84363 4.05371C5.84363 3.22371 5.17863 2.55371 4.34863 2.55371C3.51863 2.55371 2.84863 3.22371 2.84863 4.05371C2.84863 4.88371 3.51863 5.55371 4.34863 5.55371ZM4.34863 6.55371C3.18363 6.55371 0.848633 7.13871 0.848633 8.30371V9.55371H7.84863V8.30371C7.84863 7.13871 5.51363 6.55371 4.34863 6.55371ZM8.34863 6.55371C8.20363 6.55371 8.03863 6.56371 7.86363 6.57871C8.44363 6.99871 8.84863 7.56371 8.84863 8.30371V9.55371H11.8486V8.30371C11.8486 7.13871 9.51363 6.55371 8.34863 6.55371Z" fill="black"/>
</g>
</svg>
