<svg xmlns="http://www.w3.org/2000/svg" width="20" height="21" viewBox="0 0 20 21" fill="none">
    <path d="M12.9167 11.8146H12.2583L12.025 11.5896C12.8699 10.6096 13.3343 9.35853 13.3333 8.06462C13.3333 6.9933 13.0157 5.94605 12.4205 5.05528C11.8253 4.16451 10.9793 3.47025 9.98954 3.06027C8.99977 2.6503 7.91066 2.54303 6.85993 2.75203C5.8092 2.96103 4.84404 3.47692 4.08651 4.23446C3.32897 4.99199 2.81309 5.95715 2.60408 7.00788C2.39508 8.05861 2.50235 9.14772 2.91232 10.1375C3.3223 11.1273 4.01656 11.9732 4.90733 12.5684C5.7981 13.1636 6.84535 13.4813 7.91667 13.4813C9.25834 13.4813 10.4917 12.9896 11.4417 12.173L11.6667 12.4063V13.0646L15.8333 17.223L17.075 15.9813L12.9167 11.8146ZM7.91667 11.8146C5.84167 11.8146 4.16667 10.1396 4.16667 8.06462C4.16667 5.98962 5.84167 4.31462 7.91667 4.31462C9.99167 4.31462 11.6667 5.98962 11.6667 8.06462C11.6667 10.1396 9.99167 11.8146 7.91667 11.8146Z"
          fill="#080915"/>
</svg>