<svg
  width="current"
  height="current"
  viewBox="0 0 20 20"
  fill="none"
  xmlns="http://www.w3.org/2000/svg"
>
  <path
    id="Vector"
    fill="currentColor"
    d="M13.1315 11.6667H12.4732L12.2398 11.4417C13.0847 10.4617 13.5491 9.21058 13.5482 7.91667C13.5482 6.84535 13.2305 5.7981 12.6353 4.90733C12.0401 4.01656 11.1941 3.3223 10.2044 2.91232C9.21462 2.50235 8.1255 2.39508 7.07477 2.60408C6.02404 2.81309 5.05889 3.32897 4.30135 4.08651C3.54382 4.84404 3.02793 5.8092 2.81893 6.85993C2.60992 7.91066 2.71719 8.99977 3.12717 9.98954C3.53714 10.9793 4.23141 11.8253 5.12217 12.4205C6.01294 13.0157 7.0602 13.3333 8.13151 13.3333C9.47318 13.3333 10.7065 12.8417 11.6565 12.025L11.8815 12.2583V12.9167L16.0482 17.075L17.2898 15.8333L13.1315 11.6667V11.6667ZM8.13151 11.6667C6.05651 11.6667 4.38151 9.99167 4.38151 7.91667C4.38151 5.84167 6.05651 4.16667 8.13151 4.16667C10.2065 4.16667 11.8815 5.84167 11.8815 7.91667C11.8815 9.99167 10.2065 11.6667 8.13151 11.6667Z"
  />
</svg>
