<svg xmlns="http://www.w3.org/2000/svg" width="17" height="16" viewBox="0 0 17 16" fill="none">
    <path d="M15.4801 3.46671C15.1667 3.30671 14.8401 3.17337 14.5001 3.06004V11.08C13.7401 10.8067 12.9601 10.6667 12.1667 10.6667C10.9001 10.6667 9.64675 11.0267 8.50008 11.72V3.65337C7.42008 3.03337 6.17341 2.66671 4.83341 2.66671C3.64008 2.66671 2.51341 2.96004 1.52008 3.46671C1.30008 3.57337 1.16675 3.80671 1.16675 4.05337V12.1067C1.16675 12.4934 1.48008 12.7667 1.83341 12.7667C1.94008 12.7667 2.04675 12.74 2.15341 12.6867C2.96008 12.2667 3.86675 12 4.83341 12C6.21341 12 7.48675 12.5467 8.50008 13.3334C9.51341 12.5467 10.7867 12 12.1667 12C13.1334 12 14.0401 12.2667 14.8467 12.6934C14.9534 12.7467 15.0601 12.7734 15.1667 12.7734C15.5134 12.7734 15.8334 12.5 15.8334 12.1134V4.05337C15.8334 3.80671 15.7001 3.57337 15.4801 3.46671ZM7.16675 11.08C6.40675 10.8067 5.62675 10.6667 4.83341 10.6667C4.04008 10.6667 3.26008 10.8067 2.50008 11.08V4.47337C3.24008 4.16004 4.02008 4.00004 4.83341 4.00004C5.63341 4.00004 6.42675 4.16671 7.16675 4.48004V11.08ZM13.1667 0.333374L9.83341 3.66671V10L13.1667 7.00004V0.333374Z"
          fill="currentColor"/>
</svg>