<svg width="20" height="20" viewBox="0 0 20 20" fill="none" xmlns="http://www.w3.org/2000/svg">
<g id="FiTrash2">
<path id="Vector (Stroke)" fill-rule="evenodd" clip-rule="evenodd" d="M1.66669 4.99984C1.66669 4.5396 2.03978 4.1665 2.50002 4.1665H17.5C17.9603 4.1665 18.3334 4.5396 18.3334 4.99984C18.3334 5.46007 17.9603 5.83317 17.5 5.83317H2.50002C2.03978 5.83317 1.66669 5.46007 1.66669 4.99984Z" fill="#3660F9"/>
<path id="Vector (Stroke)_2" fill-rule="evenodd" clip-rule="evenodd" d="M8.33331 2.50016C8.1123 2.50016 7.90034 2.58796 7.74406 2.74424C7.58778 2.90052 7.49998 3.11248 7.49998 3.3335V5.00016C7.49998 5.4604 7.12688 5.8335 6.66665 5.8335C6.20641 5.8335 5.83331 5.4604 5.83331 5.00016V3.3335C5.83331 2.67045 6.09671 2.03457 6.56555 1.56573C7.03439 1.09689 7.67027 0.833496 8.33331 0.833496H11.6666C12.3297 0.833496 12.9656 1.09689 13.4344 1.56573C13.9033 2.03457 14.1666 2.67045 14.1666 3.3335V5.00016C14.1666 5.4604 13.7936 5.8335 13.3333 5.8335C12.8731 5.8335 12.5 5.4604 12.5 5.00016V3.3335C12.5 3.11248 12.4122 2.90052 12.2559 2.74424C12.0996 2.58796 11.8877 2.50016 11.6666 2.50016H8.33331ZM4.16665 4.16683C4.62688 4.16683 4.99998 4.53993 4.99998 5.00016V16.6668C4.99998 16.8878 5.08778 17.0998 5.24406 17.2561C5.40034 17.4124 5.6123 17.5002 5.83331 17.5002H14.1666C14.3877 17.5002 14.5996 17.4124 14.7559 17.2561C14.9122 17.0998 15 16.8878 15 16.6668V5.00016C15 4.53993 15.3731 4.16683 15.8333 4.16683C16.2936 4.16683 16.6666 4.53993 16.6666 5.00016V16.6668C16.6666 17.3299 16.4033 17.9658 15.9344 18.4346C15.4656 18.9034 14.8297 19.1668 14.1666 19.1668H5.83331C5.17027 19.1668 4.53439 18.9034 4.06555 18.4346C3.59671 17.9658 3.33331 17.3299 3.33331 16.6668V5.00016C3.33331 4.53993 3.70641 4.16683 4.16665 4.16683Z" fill="#3660F9"/>
<path id="Vector (Stroke)_3" fill-rule="evenodd" clip-rule="evenodd" d="M8.33333 8.3335C8.79357 8.3335 9.16667 8.70659 9.16667 9.16683V14.1668C9.16667 14.6271 8.79357 15.0002 8.33333 15.0002C7.8731 15.0002 7.5 14.6271 7.5 14.1668V9.16683C7.5 8.70659 7.8731 8.3335 8.33333 8.3335Z" fill="#3660F9"/>
<path id="Vector (Stroke)_4" fill-rule="evenodd" clip-rule="evenodd" d="M11.6666 8.3335C12.1269 8.3335 12.5 8.70659 12.5 9.16683V14.1668C12.5 14.6271 12.1269 15.0002 11.6666 15.0002C11.2064 15.0002 10.8333 14.6271 10.8333 14.1668V9.16683C10.8333 8.70659 11.2064 8.3335 11.6666 8.3335Z" fill="#3660F9"/>
</g>
</svg>
