<svg width="20" height="20" viewBox="0 0 20 20" fill="none" xmlns="http://www.w3.org/2000/svg">
<g id="FiTrash2">
<path id="Vector (Stroke)" fill-rule="evenodd" clip-rule="evenodd" d="M1.66675 5C1.66675 4.53976 2.03984 4.16666 2.50008 4.16666H17.5001C17.9603 4.16666 18.3334 4.53976 18.3334 5C18.3334 5.46023 17.9603 5.83333 17.5001 5.83333H2.50008C2.03984 5.83333 1.66675 5.46023 1.66675 5Z" fill="#3660F9"/>
<path id="Vector (Stroke)_2" fill-rule="evenodd" clip-rule="evenodd" d="M8.33325 2.5C8.11224 2.5 7.90028 2.5878 7.744 2.74408C7.58772 2.90036 7.49992 3.11232 7.49992 3.33334V5C7.49992 5.46024 7.12682 5.83334 6.66659 5.83334C6.20635 5.83334 5.83325 5.46024 5.83325 5V3.33334C5.83325 2.67029 6.09664 2.03441 6.56549 1.56557C7.03433 1.09673 7.67021 0.833336 8.33325 0.833336H11.6666C12.3296 0.833336 12.9655 1.09673 13.4344 1.56557C13.9032 2.03441 14.1666 2.67029 14.1666 3.33334V5C14.1666 5.46024 13.7935 5.83334 13.3333 5.83334C12.873 5.83334 12.4999 5.46024 12.4999 5V3.33334C12.4999 3.11232 12.4121 2.90036 12.2558 2.74408C12.0996 2.5878 11.8876 2.5 11.6666 2.5H8.33325ZM4.16659 4.16667C4.62682 4.16667 4.99992 4.53976 4.99992 5V16.6667C4.99992 16.8877 5.08772 17.0996 5.244 17.2559C5.40028 17.4122 5.61224 17.5 5.83325 17.5H14.1666C14.3876 17.5 14.5996 17.4122 14.7558 17.2559C14.9121 17.0996 14.9999 16.8877 14.9999 16.6667V5C14.9999 4.53976 15.373 4.16667 15.8333 4.16667C16.2935 4.16667 16.6666 4.53976 16.6666 5V16.6667C16.6666 17.3297 16.4032 17.9656 15.9344 18.4344C15.4655 18.9033 14.8296 19.1667 14.1666 19.1667H5.83325C5.17021 19.1667 4.53433 18.9033 4.06548 18.4344C3.59664 17.9656 3.33325 17.3297 3.33325 16.6667V5C3.33325 4.53976 3.70635 4.16667 4.16659 4.16667Z" fill="#3660F9"/>
<path id="Vector (Stroke)_3" fill-rule="evenodd" clip-rule="evenodd" d="M8.33333 8.33334C8.79357 8.33334 9.16667 8.70643 9.16667 9.16667V14.1667C9.16667 14.6269 8.79357 15 8.33333 15C7.8731 15 7.5 14.6269 7.5 14.1667V9.16667C7.5 8.70643 7.8731 8.33334 8.33333 8.33334Z" fill="#3660F9"/>
<path id="Vector (Stroke)_4" fill-rule="evenodd" clip-rule="evenodd" d="M11.6666 8.33334C12.1268 8.33334 12.4999 8.70643 12.4999 9.16667V14.1667C12.4999 14.6269 12.1268 15 11.6666 15C11.2063 15 10.8333 14.6269 10.8333 14.1667V9.16667C10.8333 8.70643 11.2063 8.33334 11.6666 8.33334Z" fill="#3660F9"/>
</g>
</svg>
