<svg viewBox="0 0 151 151" fill="none" xmlns="http://www.w3.org/2000/svg">
<rect x="0.338379" y="0.215698" width="150" height="150" rx="30" fill="#D1FD57"/>
<path d="M24.3384 50.2157H62.3384C68.9658 50.2157 74.3384 55.5883 74.3384 62.2157C74.3384 68.8431 68.9658 74.2157 62.3384 74.2157H24.3384V50.2157Z" fill="#3660F9"/>
<path d="M126.338 50.2157L126.338 88.2157C126.338 94.8431 120.966 100.216 114.338 100.216C107.711 100.216 102.338 94.8431 102.338 88.2157L102.338 50.2157L126.338 50.2157Z" fill="#3660F9"/>
<path d="M24.3384 76.2157H62.3384C68.9658 76.2157 74.3384 81.5883 74.3384 88.2157C74.3384 94.8431 68.9658 100.216 62.3384 100.216H24.3384V76.2157Z" fill="#3660F9"/>
<path d="M100.338 50.2157L100.338 88.2157C100.338 94.8431 94.9658 100.216 88.3384 100.216C81.711 100.216 76.3384 94.8431 76.3384 88.2157L76.3384 50.2157L100.338 50.2157Z" fill="#3660F9"/>
</svg>
