<svg width="540" height="720" viewBox="0 0 540 720" fill="none" xmlns="http://www.w3.org/2000/svg">
<rect width="540" height="720" fill="#3660F9"/>
<path d="M110 328.362H157.867C166.215 328.362 172.983 335.13 172.983 343.478C172.983 351.827 166.215 358.594 157.867 358.594H110V328.362Z" fill="#D1FD57"/>
<path d="M238.485 328.362V376.229C238.485 384.578 231.717 391.345 223.369 391.345C215.021 391.345 208.253 384.578 208.253 376.229L208.253 328.362L238.485 328.362Z" fill="#D1FD57"/>
<path d="M110 361.113H157.867C166.215 361.113 172.983 367.881 172.983 376.229C172.983 384.578 166.215 391.345 157.867 391.345H110V361.113Z" fill="#D1FD57"/>
<path d="M205.734 328.362L205.734 376.229C205.734 384.578 198.966 391.345 190.618 391.345C182.27 391.345 175.502 384.578 175.502 376.229L175.502 328.362L205.734 328.362Z" fill="#D1FD57"/>
<path d="M307.221 391.07H296.236V379.761H257.786V368.776H277.754V365.545H253.521V355.205H312.326V365.545H288.093V368.776H307.221V391.07ZM307.221 329.034V351.974H257.786V328.388H268.772V332.265H296.236V329.034H307.221ZM296.236 342.927V340.666H268.772V342.927H296.236Z" fill="#D1FD57"/>
<path d="M344.378 342.54C349.031 342.54 352.089 342.518 353.554 342.475C355.062 342.389 355.988 342.238 356.333 342.023C356.72 341.764 356.914 341.247 356.914 340.472C356.914 339.696 356.72 339.179 356.333 338.921C355.988 338.662 355.062 338.512 353.554 338.469C352.089 338.382 349.031 338.339 344.378 338.339C339.639 338.339 336.516 338.382 335.008 338.469C333.5 338.512 332.552 338.662 332.165 338.921C331.777 339.179 331.583 339.696 331.583 340.472C331.583 341.247 331.777 341.764 332.165 342.023C332.552 342.238 333.5 342.389 335.008 342.475C336.516 342.518 339.639 342.54 344.378 342.54ZM344.378 352.879C337.83 352.879 332.811 352.297 329.321 351.134C325.832 349.971 323.505 348.506 322.342 346.74C321.179 344.974 320.597 342.884 320.597 340.472C320.597 338.016 321.158 335.905 322.278 334.139C323.441 332.33 325.767 330.865 329.257 329.745C332.746 328.582 337.787 328 344.378 328C350.883 328 355.859 328.582 359.305 329.745C362.752 330.865 365.035 332.33 366.155 334.139C367.318 335.905 367.9 338.016 367.9 340.472C367.9 342.884 367.318 344.974 366.155 346.74C365.035 348.506 362.73 349.971 359.241 351.134C355.794 352.297 350.84 352.879 344.378 352.879ZM373.716 367.289H349.483V384.543H339.144V367.289H314.911V356.95H373.716V367.289Z" fill="#D1FD57"/>
<path d="M400.21 343.25V339.696H376.947V329.68H411.195V343.25C411.195 345.534 410.571 347.3 409.321 348.549C408.115 349.756 406.37 350.359 404.087 350.359H387.932V353.913C402.105 353.913 412.466 352.211 419.015 348.808V329.034H430V390.036H419.015V357.467C413.586 360.052 407.232 361.775 399.951 362.637C392.714 363.498 385.046 363.929 376.947 363.929V343.25H400.21Z" fill="#D1FD57"/>
</svg>
