<svg width="131" height="105" viewBox="0 0 131 105" fill="none" xmlns="http://www.w3.org/2000/svg">
<path d="M91.4609 22.75L76.9297 41.7083L87.9734 56.1167L81.7734 60.6667C75.2247 52.1354 64.3359 37.9167 64.3359 37.9167L41.0859 68.25H126.336L91.4609 22.75Z" fill="#6D6F78"/>
<path d="M45.711 36.7526C49.8991 36.7526 53.2943 33.3574 53.2943 29.1693C53.2943 24.9811 49.8991 21.5859 45.711 21.5859C41.5228 21.5859 38.1276 24.9811 38.1276 29.1693C38.1276 33.3574 41.5228 36.7526 45.711 36.7526Z" fill="black"/>
<path d="M60.4605 44.753C58.9818 43.2743 56.4414 40.5443 51.5122 40.5443H41.8814C31.4543 40.5064 22.961 32.013 22.961 21.5859H15.3776C15.3776 33.5676 23.378 43.7293 34.336 47.028V97.4193H41.9193V74.6693H49.5026V97.4193H57.086V52.1089L72.063 67.0859L77.4093 61.7397L60.4605 44.753Z" fill="black"/>
<path d="M45.2109 39.7H55.2109V29.7H45.2109V39.7Z" fill="black"/>
</svg>
