<svg width="131" height="105" viewBox="0 0 131 105" fill="none" xmlns="http://www.w3.org/2000/svg">
<path d="M91.5898 22.75L77.0586 41.7083L88.1023 56.1167L81.9023 60.6667C75.3536 52.1354 64.4648 37.9167 64.4648 37.9167L41.2148 68.25H126.465L91.5898 22.75Z" fill="#6D6F78"/>
<path d="M45.8398 36.7526C50.028 36.7526 53.4231 33.3574 53.4231 29.1693C53.4231 24.9811 50.028 21.5859 45.8398 21.5859C41.6516 21.5859 38.2565 24.9811 38.2565 29.1693C38.2565 33.3574 41.6516 36.7526 45.8398 36.7526Z" fill="black"/>
<path d="M60.5894 44.753C59.1106 43.2743 56.5702 40.5443 51.6411 40.5443H42.0102C31.5831 40.5064 23.0898 32.013 23.0898 21.5859H15.5065C15.5065 33.5676 23.5069 43.7293 34.4648 47.028V97.4193H42.0481V74.6693H49.6315V97.4193H57.2148V52.1089L72.1919 67.0859L77.5381 61.7397L60.5894 44.753Z" fill="black"/>
<path d="M37.8398 20.12H53.8398V4.12H37.8398V20.12Z" fill="black"/>
</svg>
