<svg width="179" height="49" viewBox="0 0 179 49" fill="none" xmlns="http://www.w3.org/2000/svg">
<path d="M0.0223389 7.552H25.9482C30.4698 7.552 34.1353 11.2175 34.1353 15.7391C34.1353 20.2607 30.4698 23.9262 25.9482 23.9262H0.0223389V7.552Z" fill="#3660F9"/>
<path d="M69.6127 7.552L69.6127 33.4778C69.6127 37.9994 65.9472 41.6649 61.4256 41.6649C56.904 41.6649 53.2385 37.9994 53.2385 33.4778L53.2385 7.552L69.6127 7.552Z" fill="#3660F9"/>
<path d="M0.0223389 25.2907H25.9482C30.4698 25.2907 34.1353 28.9562 34.1353 33.4778C34.1353 37.9994 30.4698 41.6649 25.9482 41.6649H0.0223389V25.2907Z" fill="#3660F9"/>
<path d="M51.8739 7.552L51.8739 33.4778C51.8739 37.9994 48.2084 41.6649 43.6868 41.6649C39.1652 41.6649 35.4997 37.9994 35.4997 33.4778L35.4997 7.552L51.8739 7.552Z" fill="#3660F9"/>
<path d="M106.842 41.5157H100.892V35.3907H80.0669V29.4407H90.8819V27.6907H77.7569V22.0907H109.607V27.6907H96.4819V29.4407H106.842V41.5157ZM106.842 7.9157V20.3407H80.0669V7.5657H86.0169V9.6657H100.892V7.9157H106.842ZM100.892 15.4407V14.2157H86.0169V15.4407H100.892ZM126.967 15.2307C129.487 15.2307 131.144 15.219 131.937 15.1957C132.754 15.149 133.255 15.0674 133.442 14.9507C133.652 14.8107 133.757 14.5307 133.757 14.1107C133.757 13.6907 133.652 13.4107 133.442 13.2707C133.255 13.1307 132.754 13.049 131.937 13.0257C131.144 12.979 129.487 12.9557 126.967 12.9557C124.4 12.9557 122.709 12.979 121.892 13.0257C121.075 13.049 120.562 13.1307 120.352 13.2707C120.142 13.4107 120.037 13.6907 120.037 14.1107C120.037 14.5307 120.142 14.8107 120.352 14.9507C120.562 15.0674 121.075 15.149 121.892 15.1957C122.709 15.219 124.4 15.2307 126.967 15.2307ZM126.967 20.8307C123.42 20.8307 120.702 20.5157 118.812 19.8857C116.922 19.2557 115.662 18.4624 115.032 17.5057C114.402 16.549 114.087 15.4174 114.087 14.1107C114.087 12.7807 114.39 11.6374 114.997 10.6807C115.627 9.7007 116.887 8.90736 118.777 8.3007C120.667 7.6707 123.397 7.3557 126.967 7.3557C130.49 7.3557 133.185 7.6707 135.052 8.3007C136.919 8.90736 138.155 9.7007 138.762 10.6807C139.392 11.6374 139.707 12.7807 139.707 14.1107C139.707 15.4174 139.392 16.549 138.762 17.5057C138.155 18.4624 136.907 19.2557 135.017 19.8857C133.15 20.5157 130.467 20.8307 126.967 20.8307ZM142.857 28.6357H129.732V37.9807H124.132V28.6357H111.007V23.0357H142.857V28.6357ZM157.207 15.6157V13.6907H144.607V8.2657H163.157V15.6157C163.157 16.8524 162.819 17.809 162.142 18.4857C161.489 19.139 160.544 19.4657 159.307 19.4657H150.557V21.3907C158.234 21.3907 163.845 20.469 167.392 18.6257V7.9157H173.342V40.9557H167.392V23.3157C164.452 24.7157 161.01 25.649 157.067 26.1157C153.147 26.5824 148.994 26.8157 144.607 26.8157V15.6157H157.207Z" fill="#3660F9"/>
</svg>
