<svg width="301" height="45" viewBox="0 0 301 45" fill="none" xmlns="http://www.w3.org/2000/svg">
<rect x="0.5" width="300" height="45" rx="6" fill="#FEE500"/>
<g clip-path="url(#clip0_29_4367)">
<path fill-rule="evenodd" clip-rule="evenodd" d="M108.5 14.0996C103.529 14.0996 99.5 17.2126 99.5 21.0519C99.5 23.4396 101.058 25.5446 103.432 26.7966L102.433 30.4441C102.345 30.7664 102.713 31.0233 102.996 30.8365L107.373 27.9478C107.743 27.9835 108.118 28.0043 108.5 28.0043C113.47 28.0043 117.5 24.8914 117.5 21.0519C117.5 17.2126 113.47 14.0996 108.5 14.0996Z" fill="black"/>
</g>
<path d="M132.336 17.0811C132.336 18.4437 132.179 19.6673 131.864 20.752C131.554 21.8366 130.989 22.8483 130.169 23.7871C129.349 24.7214 128.209 25.5531 126.751 26.2822L125.917 25.1338C127.184 24.5094 128.177 23.8099 128.897 23.0352C129.622 22.2559 130.13 21.4059 130.422 20.4854C130.714 19.5602 130.859 18.4893 130.859 17.2725V17.0811H132.336ZM131.762 18.3115H126.662V17.0811H131.762V18.3115ZM126.218 21.7295L126.02 20.417L130.818 20.123V21.292L126.218 21.7295ZM135.59 28.1963H134.072V15.8574H135.59V28.1963ZM137.422 21.9482H135.2V20.6904H137.422V21.9482ZM144.436 17.0811C144.436 18.4437 144.278 19.6673 143.964 20.752C143.654 21.8366 143.089 22.8483 142.269 23.7871C141.448 24.7214 140.309 25.5531 138.851 26.2822L138.017 25.1338C139.284 24.5094 140.277 23.8099 140.997 23.0352C141.722 22.2559 142.23 21.4059 142.521 20.4854C142.813 19.5602 142.959 18.4893 142.959 17.2725V17.0811H144.436ZM143.861 18.3115H138.762V17.0811H143.861V18.3115ZM138.317 21.7295L138.119 20.417L142.918 20.123V21.292L138.317 21.7295ZM147.689 28.1963H146.172V15.8574H147.689V28.1963ZM149.521 21.9482H147.3V20.6904H149.521V21.9482ZM156.48 25.7285H154.983V22.8027H156.48V25.7285ZM155.742 16.5479C156.617 16.5479 157.403 16.6868 158.101 16.9648C158.802 17.2428 159.352 17.6348 159.748 18.1406C160.145 18.6465 160.343 19.2275 160.343 19.8838C160.343 20.5583 160.145 21.1484 159.748 21.6543C159.352 22.1602 158.805 22.5521 158.107 22.8301C157.41 23.1035 156.622 23.2402 155.742 23.2402C154.863 23.2402 154.072 23.1035 153.37 22.8301C152.673 22.5521 152.126 22.1602 151.729 21.6543C151.338 21.1484 151.142 20.5583 151.142 19.8838C151.142 19.2275 151.338 18.6465 151.729 18.1406C152.126 17.6348 152.673 17.2428 153.37 16.9648C154.072 16.6868 154.863 16.5479 155.742 16.5479ZM155.742 17.7715C155.141 17.7715 154.603 17.8581 154.129 18.0312C153.655 18.2044 153.286 18.4505 153.021 18.7695C152.762 19.0885 152.632 19.46 152.632 19.8838C152.632 20.3213 152.762 20.7018 153.021 21.0254C153.286 21.349 153.653 21.5973 154.122 21.7705C154.591 21.9391 155.132 22.0257 155.742 22.0303C156.353 22.0257 156.891 21.9391 157.355 21.7705C157.825 21.5973 158.189 21.349 158.449 21.0254C158.714 20.7018 158.846 20.3213 158.846 19.8838C158.846 19.46 158.714 19.0885 158.449 18.7695C158.189 18.4505 157.825 18.2044 157.355 18.0312C156.886 17.8581 156.348 17.7715 155.742 17.7715ZM161.409 26.7197H150.116V25.4688H161.409V26.7197ZM176.845 26.7812H165.552V25.5303H176.845V26.7812ZM171.916 26.0635H170.419V23.0898H171.916V26.0635ZM175.498 20.6699H168.402V22.9121H166.885V19.4736H174.001V17.9287H166.864V16.6982H175.498V20.6699ZM175.792 23.5068H166.885V22.2695H175.792V23.5068ZM186.771 18.291H178.834V17.0537H186.771V18.291ZM188.903 26.5146H177.651V25.2773H188.903V26.5146ZM187.475 18.4551C187.475 19.207 187.465 19.8428 187.447 20.3623C187.434 20.8818 187.395 21.4857 187.331 22.1738C187.272 22.8574 187.172 23.6025 187.03 24.4092L185.479 24.2793C185.633 23.5228 185.745 22.8096 185.813 22.1396C185.886 21.4697 185.93 20.8704 185.943 20.3418C185.957 19.8086 185.964 19.1797 185.964 18.4551V17.0537H187.475V18.4551ZM200.032 24.7988H198.508V15.8711H200.032V24.7988ZM200.381 27.9844H191.856V26.7402H200.381V27.9844ZM193.388 27.2256H191.856V23.8965H193.388V27.2256ZM193.299 16.6777C193.923 16.6777 194.488 16.8099 194.994 17.0742C195.505 17.3385 195.903 17.7054 196.19 18.1748C196.482 18.6442 196.628 19.1729 196.628 19.7607C196.628 20.3623 196.482 20.9001 196.19 21.374C195.903 21.8434 195.505 22.2103 194.994 22.4746C194.488 22.7389 193.923 22.8711 193.299 22.8711C192.674 22.8711 192.109 22.7389 191.604 22.4746C191.102 22.2103 190.703 21.8434 190.407 21.374C190.116 20.9001 189.97 20.3623 189.97 19.7607C189.97 19.1729 190.116 18.6442 190.407 18.1748C190.703 17.7054 191.102 17.3385 191.604 17.0742C192.109 16.8099 192.674 16.6777 193.299 16.6777ZM193.299 18.0107C192.948 18.0062 192.631 18.0768 192.349 18.2227C192.071 18.3639 191.852 18.569 191.692 18.8379C191.533 19.1068 191.453 19.4144 191.453 19.7607C191.453 20.1162 191.533 20.4307 191.692 20.7041C191.852 20.973 192.071 21.1803 192.349 21.3262C192.631 21.4674 192.948 21.5381 193.299 21.5381C193.645 21.5381 193.957 21.4674 194.235 21.3262C194.513 21.1803 194.73 20.973 194.885 20.7041C195.044 20.4307 195.124 20.1162 195.124 19.7607C195.124 19.4144 195.044 19.1068 194.885 18.8379C194.73 18.569 194.513 18.3639 194.235 18.2227C193.957 18.0768 193.645 18.0062 193.299 18.0107Z" fill="black" fill-opacity="0.85"/>
<defs>
<clipPath id="clip0_29_4367">
<rect width="17.9999" height="18" fill="white" transform="translate(99.5 13.5)"/>
</clipPath>
</defs>
</svg>
