<svg width="30" height="30" viewBox="0 0 30 30" fill="none" xmlns="http://www.w3.org/2000/svg">
<rect width="30" height="30" rx="15" fill="#96B8FF"/>
<path fill-rule="evenodd" clip-rule="evenodd" d="M9.86201 9.86201C10.1224 9.60166 10.5445 9.60166 10.8048 9.86201L15.4715 14.5287C15.7318 14.789 15.7318 15.2111 15.4715 15.4715L10.8048 20.1382C10.5445 20.3985 10.1224 20.3985 9.86201 20.1382C9.60166 19.8778 9.60166 19.4557 9.86201 19.1953L14.0573 15.0001L9.86201 10.8048C9.60166 10.5445 9.60166 10.1224 9.86201 9.86201ZM15.1953 9.86201C15.4557 9.60166 15.8778 9.60166 16.1382 9.86201L20.8048 14.5287C21.0652 14.789 21.0652 15.2111 20.8048 15.4715L16.1382 20.1382C15.8778 20.3985 15.4557 20.3985 15.1953 20.1382C14.935 19.8778 14.935 19.4557 15.1953 19.1953L19.3906 15.0001L15.1953 10.8048C14.935 10.5445 14.935 10.1224 15.1953 9.86201Z" fill="white"/>
</svg>
